<svg xmlns="http://www.w3.org/2000/svg" width="39.867" height="43.937" viewBox="0 0 39.867 43.937">
    <defs>
      <linearGradient id="grad" x1="0%" y1="0%" x2="100%" y2="0%">
        <stop offset="0%" stopColor="#7C1DC9" stopOpacity="1" />
        <stop offset="100%" stopColor="#00B7D5" stopOpacity="1" />
      </linearGradient>
    </defs>
    <path fill="url(#grad)" d="M29.15,43.8a4,4,0,0,1-2.429-1.844l-5.27-9.128a14.952,14.952,0,0,1-2.427.42,1.006,1.006,0,0,1-.74-.223,1.022,1.022,0,0,1-.248-.306,1,1,0,0,1,.433-1.358,1.014,1.014,0,0,1,.38-.105,12.931,12.931,0,0,0,2.742-.548l.033-.011A13.01,13.01,0,0,0,30.67,18.912a1,1,0,1,1,2,.1,15.036,15.036,0,0,1-4.289,9.823l5.27,9.129a4,4,0,0,1-4.5,5.844ZM23.387,32.185l5.066,8.774a2,2,0,0,0,2,.995,2,2,0,0,0,1.468-2.994l-5.066-8.774a15.183,15.183,0,0,1-2.015,1.31l-.017.009-.055.03a14.943,14.943,0,0,1-1.358.643ZM10.021,42.813A2.954,2.954,0,1,1,11.254,37.2l2.288-2.288a1,1,0,0,0,0-1.415l-.141-.142A3,3,0,0,1,9.441,29.4L9.3,29.254a1.013,1.013,0,0,0-.325-.217,1.008,1.008,0,0,0-.766,0,1.013,1.013,0,0,0-.325.217l-2.3,2.3a3,3,0,0,1-.53,3.357h0A3,3,0,0,1,.815,30.667a3,3,0,0,1,3.359-.528l2.3-2.3a3,3,0,0,1,4.243,0l.138.138a3,3,0,0,1,3.967,3.966l.138.138a3,3,0,0,1,0,4.242l-2.289,2.289a2.884,2.884,0,0,1-2.613,4.2Zm-.4-3.876a.983.983,0,0,0-.324.216,1,1,0,0,0,1.414,1.416,1.013,1.013,0,0,0,.217-.325,1,1,0,0,0-1.307-1.307Zm-7.4-6.857a1.013,1.013,0,0,0-.217.325,1,1,0,1,0,.217-.325Zm9.192-2.12a1.008,1.008,0,0,0-.292.707,1,1,0,0,0,.076.382,1.013,1.013,0,0,0,.217.325,1.008,1.008,0,0,0,.707.292,1,1,0,0,0,.383-.076,1.013,1.013,0,0,0,.325-.217A1,1,0,0,0,11.42,29.96Zm4.195-3.926a8,8,0,1,1,2.071.273A8,8,0,0,1,15.615,26.034Zm-.93-12.922a6,6,0,1,0,3-.8A6.008,6.008,0,0,0,14.685,13.112ZM5.079,25.918a1,1,0,0,1-.593-.483A14.993,14.993,0,0,1,22.238,4.02a1,1,0,0,1-.606,1.9A13,13,0,0,0,6.245,24.484a1,1,0,0,1-1.166,1.435ZM29.963,15.786a3,3,0,0,1-1.822-1.4l-.1-.173a3,3,0,0,1-2.8-4.851l-.1-.173a3,3,0,0,1,1.1-4.1l2.814-1.625A3,3,0,0,1,30.435.363a3,3,0,0,1,3,5.2A3,3,0,0,1,30.054,5.2L27.24,6.826a1,1,0,0,0-.366,1.366l.1.169a3,3,0,0,1,2.806,4.861l.1.167a1,1,0,0,0,1.365.365l2.815-1.625a3,3,0,1,1,1,1.732L32.24,15.486a3.006,3.006,0,0,1-2.277.3Zm6.843-5.156a1,1,0,1,0,.63,1.859,1.017,1.017,0,0,0,.293-.257,1,1,0,0,0-.535-1.576.988.988,0,0,0-.257-.034A1.008,1.008,0,0,0,36.806,10.63Zm-9.8-.206a1,1,0,0,0,.241,1.833,1.016,1.016,0,0,0,.39.025,1,1,0,1,0-.631-1.858Zm4.428-8.33a1,1,0,1,0,.5-.134A1,1,0,0,0,31.435,2.094Z" transform="translate(0 0)"/>
</svg>