<svg xmlns="http://www.w3.org/2000/svg" width="20.5" height="18.988" viewBox="0 0 20.5 18.988"><path d="M10-.75a.747.747,0,0,1,.514.2l9,8.486.006.006a.748.748,0,0,1,.155.211v.005l.017.037a.748.748,0,0,1,.057.277h0v0h0s0,.005,0,.008,0,.019,0,.028v0a.747.747,0,0,1-.05.24h0c-.007.017-.014.034-.022.051v.005h0a.748.748,0,0,1-.132.189l-.014.015-9,9A.75.75,0,0,1,9.47,16.958l7.72-7.72H0a.75.75,0,0,1,0-1.5H17.112L9.485.546A.748.748,0,0,1,9.25,0a.747.747,0,0,1,.2-.514A.748.748,0,0,1,10-.75Z" transform="translate(0.75 0.75)"/></svg>