<svg xmlns="http://www.w3.org/2000/svg" width="36" height="36" viewBox="0 0 36 36">
    <defs>
      <linearGradient id="grad" x1="0%" y1="0%" x2="100%" y2="0%">
        <stop offset="0%" stopColor="#7C1DC9" stopOpacity="1" />
        <stop offset="100%" stopColor="#00B7D5" stopOpacity="1" />
      </linearGradient>
    </defs>
    <path fill="url(#grad)" d="M1,36a1,1,0,0,1-1-1V1A1,1,0,0,1,1,0H35a1,1,0,0,1,1,1V35a1,1,0,0,1-1,1Zm1-2H34V6H19.41l-3.7,3.71A1,1,0,0,1,15,10H2ZM14.59,8l3.7-3.71a1,1,0,0,1,.327-.216A1.017,1.017,0,0,1,19,4H34V2H2V8Zm.96,17.89a1,1,0,0,1-.44-1.34l4-8a1,1,0,0,1,.23-.337A1.01,1.01,0,0,1,19.687,16a1,1,0,0,1,.8.045,1.01,1.01,0,0,1,.319.255,1.025,1.025,0,0,1,.191.361,1,1,0,0,1-.1.793l-4,8A1,1,0,0,1,16,26h-.011A.93.93,0,0,1,15.55,25.89Zm-5.344.035a1,1,0,0,1-.326-.215l-4-4a1,1,0,0,1-.219-1.094,1.022,1.022,0,0,1,.219-.326l4-4a1,1,0,1,1,1.409,1.42L8,21l3.29,3.29a1,1,0,0,1-.7,1.71h-.007A.984.984,0,0,1,10.206,25.925Zm14.826-.092A1,1,0,0,1,24.6,24.8a1.008,1.008,0,0,1,.276-.513L28.17,21,24.88,17.71a1,1,0,0,1,0-1.42,1,1,0,0,1,1.41,0l4,4a1.022,1.022,0,0,1,.219.326,1,1,0,0,1-.219,1.094l-4,4a1,1,0,0,1-.7.29h0A1,1,0,0,1,25.032,25.834ZM12,5a1,1,0,1,1,1,1A1,1,0,0,1,12,5ZM8,5A1,1,0,1,1,9,6,1,1,0,0,1,8,5ZM4,5A1,1,0,1,1,5,6,1,1,0,0,1,4,5Z"/>
</svg>