<svg xmlns="http://www.w3.org/2000/svg" width="48" height="48" viewBox="0 0 48 48">
    <defs>
      <linearGradient id="grad" x1="0%" y1="0%" x2="100%" y2="0%">
        <stop offset="0%" stopColor="#7C1DC9" stopOpacity="1" />
        <stop offset="100%" stopColor="#00B7D5" stopOpacity="1" />
      </linearGradient>
    </defs>
    <path fill="url(#grad)" d="M14.929,8.4A.75.75,0,0,0,15.8,8.26c3.461-3.534,9.706-1.977,12.413-.727l-.8,1.381a.75.75,0,0,0,.731,1.121l7.74-.85a.75.75,0,0,0,.623-1L33.7.493A.75.75,0,0,0,32.349.375l-.779,1.35A13.4,13.4,0,0,0,19.729,1.2a8.809,8.809,0,0,0-5.2,6.412.75.75,0,0,0,.4.791Zm5.442-5.847a12.036,12.036,0,0,1,11.108.826A.75.75,0,0,0,32.5,3.109l.343-.593L34.776,7.8l-5.317.584L29.91,7.6a.75.75,0,0,0-.275-1.024A17.057,17.057,0,0,0,22.8,4.637Q22.274,4.6,21.747,4.6A10.718,10.718,0,0,0,16.8,5.691,8.08,8.08,0,0,1,20.371,2.557Zm27,19.238-2.683-.43a8.63,8.63,0,0,0-.559-1.348l1.594-2.2a.75.75,0,0,0-.077-.97l-2.071-2.071a.75.75,0,0,0-.97-.077l-2.2,1.594a8.629,8.629,0,0,0-1.349-.559l-.429-2.683a.75.75,0,0,0-.741-.631H34.953a.75.75,0,0,0-.74.631l-.43,2.683a8.629,8.629,0,0,0-1.349.559l-2.2-1.594a.75.75,0,0,0-.97.077l-2.071,2.071a.75.75,0,0,0-.077.97l1.594,2.2a8.617,8.617,0,0,0-.559,1.348l-2.683.43a.75.75,0,0,0-.631.741v2.928a.75.75,0,0,0,.631.741l2.683.429a8.627,8.627,0,0,0,.559,1.349l-1.594,2.2a.75.75,0,0,0,.077.97l2.071,2.071a.75.75,0,0,0,.97.077l2.2-1.594a8.628,8.628,0,0,0,1.349.559l.429,2.683a.75.75,0,0,0,.741.631h2.929a.75.75,0,0,0,.74-.631l.43-2.683a8.623,8.623,0,0,0,1.348-.559L42.6,33.3a.75.75,0,0,0,.97-.077l2.071-2.071a.75.75,0,0,0,.077-.97l-1.594-2.2a8.618,8.618,0,0,0,.559-1.349l2.683-.429A.75.75,0,0,0,48,25.464V22.536a.75.75,0,0,0-.631-.741Zm-.869,3.03-2.522.4a.75.75,0,0,0-.608.555,7.125,7.125,0,0,1-.776,1.871.75.75,0,0,0,.038.822l1.5,2.07-1.166,1.166-2.07-1.5a.75.75,0,0,0-.822-.038,7.134,7.134,0,0,1-1.871.776.75.75,0,0,0-.555.608l-.4,2.522H35.593l-.4-2.522a.751.751,0,0,0-.555-.608,7.122,7.122,0,0,1-1.871-.776.75.75,0,0,0-.822.038l-2.07,1.5-1.166-1.166,1.5-2.07a.75.75,0,0,0,.038-.822,7.132,7.132,0,0,1-.776-1.871.75.75,0,0,0-.608-.555l-2.523-.4V23.175l2.523-.4a.75.75,0,0,0,.608-.555,7.128,7.128,0,0,1,.776-1.871.75.75,0,0,0-.038-.822l-1.5-2.07,1.166-1.166,2.07,1.5a.75.75,0,0,0,.822.038,7.131,7.131,0,0,1,1.871-.776.75.75,0,0,0,.555-.608l.4-2.522h1.649l.4,2.522a.75.75,0,0,0,.555.608,7.125,7.125,0,0,1,1.871.776.75.75,0,0,0,.822-.038l2.07-1.5,1.166,1.166-1.5,2.07a.75.75,0,0,0-.038.822,7.132,7.132,0,0,1,.776,1.871.75.75,0,0,0,.608.555l2.523.4Zm-10.082-5.9A5.077,5.077,0,1,0,41.495,24,5.083,5.083,0,0,0,36.418,18.923Zm0,8.654A3.577,3.577,0,1,1,39.995,24,3.581,3.581,0,0,1,36.418,27.577ZM15.1,33.8V33.24a1.885,1.885,0,0,0,1.1-1.709V30.423a10.02,10.02,0,0,1,1.567-5.249,7.15,7.15,0,0,0,1.243-4.129,7.725,7.725,0,1,0-15.451,0A7.15,7.15,0,0,0,4.8,25.174,10.02,10.02,0,0,1,6.37,30.423v1.108a1.886,1.886,0,0,0,1.171,1.743V33.8A1.886,1.886,0,0,0,8.7,35.538v.528a1.886,1.886,0,0,0,1.883,1.884h1.471a1.886,1.886,0,0,0,1.883-1.884v-.528A1.886,1.886,0,0,0,15.1,33.8Zm-1.883.383h-3.8a.389.389,0,0,1-.384-.383v-.384H13.6V33.8A.388.388,0,0,1,13.221,34.182ZM8.254,31.915a.389.389,0,0,1-.383-.384v-.384H14.7v.384a.389.389,0,0,1-.383.384Zm1.077-9.948H8.46a.871.871,0,1,1,.871-.871Zm2.409,7.681h-.909V23.467h.909Zm-6.68-8.6a6.225,6.225,0,1,1,12.451,0,5.757,5.757,0,0,1-1.038,3.371,11.261,11.261,0,0,0-1.717,5.232H13.24V23.467h.871A2.371,2.371,0,1,0,11.74,21.1v.871h-.909V21.1A2.371,2.371,0,1,0,8.46,23.467h.871v6.181H7.814A11.262,11.262,0,0,0,6.1,24.416,5.757,5.757,0,0,1,5.06,21.045Zm8.18.922V21.1a.871.871,0,1,1,.871.871ZM12.059,36.449H10.588a.389.389,0,0,1-.384-.383v-.384h2.238v.384A.389.389,0,0,1,12.059,36.449ZM10.535,11.712V10.069a.75.75,0,1,1,1.5,0v1.643a.75.75,0,0,1-1.5,0Zm-5.982.362a.75.75,0,0,1,1.3-.75l.822,1.423a.75.75,0,0,1-1.3.75ZM2.822,17.348a.75.75,0,0,1-1.025.274L.375,16.8a.75.75,0,1,1,.75-1.3l1.423.822a.75.75,0,0,1,.274,1.024Zm14.92-6.3a.75.75,0,0,1,.274,1.024L17.2,13.5a.75.75,0,0,1-1.3-.75l.822-1.423a.75.75,0,0,1,1.025-.274Zm4.727,4.727A.75.75,0,0,1,22.2,16.8l-1.423.822a.75.75,0,0,1-.75-1.3l1.423-.822A.75.75,0,0,1,22.47,15.776ZM35.544,39.99a.751.751,0,0,0-.875.144c-3.232,3.3-9.056,1.868-11.622.7l.729-1.263a.75.75,0,0,0-.731-1.121l-7.3.8a.75.75,0,0,0-.623,1l2.651,7.255a.75.75,0,0,0,1.354.118l.715-1.239a12.675,12.675,0,0,0,11.174.476,8.353,8.353,0,0,0,4.931-6.081.75.75,0,0,0-.4-.791Zm-5.172,5.516a11.315,11.315,0,0,1-10.441-.778A.75.75,0,0,0,18.906,45l-.278.481-1.772-4.848,4.88-.536-.384.665a.75.75,0,0,0,.274,1.025A16.138,16.138,0,0,0,28.1,43.625a10.792,10.792,0,0,0,5.553-.932A7.638,7.638,0,0,1,30.372,45.507Z"/>
</svg>