<svg xmlns="http://www.w3.org/2000/svg" xmlns:xlink="http://www.w3.org/1999/xlink" width="500.003" height="111.902" viewBox="0 0 500.003 111.902"><defs><linearGradient id="a" y1="0.5" x2="1" y2="0.5" gradientUnits="objectBoundingBox"><stop offset="0" stop-color="#00b8d6"/><stop offset="0.094" stop-color="#00b4d3"/><stop offset="0.219" stop-color="#00accf"/><stop offset="0.361" stop-color="#009ec7"/><stop offset="0.516" stop-color="#368bbc"/><stop offset="0.683" stop-color="#5173ae"/><stop offset="0.855" stop-color="#64539e"/><stop offset="1" stop-color="#6f2c91"/></linearGradient><clipPath id="b"><path d="M51.276,122.68a46.5,46.5,0,0,1-33.089-28.7l13.4,13.4,2.2-2.2ZM71.814,32.162a46.4,46.4,0,0,1,7.28,2.292L91.806,47.16,94.3,44.666,92.345,42.7c.694.613,1.362,1.247,2.015,1.9a46.244,46.244,0,0,1,12.45,22.54ZM51.559,32.1q2.154-.465,4.368-.741L81.77,57.2,84.263,54.7l23.673,23.673a46.224,46.224,0,0,1-1.072,9.026Zm61.419,91.7-16.2-16.2-5.049-5.049L73.061,83.882,64.069,74.9,61.7,77.269,28.89,44.47c-.9.883-1.759,1.806-2.575,2.764l41.7,41.7L86.69,107.608l5.049,5.042,11.149,11.156Zm-20.188,0-6.889-6.9L73.438,104.447,62.97,93.979l-8.992-8.992L51.666,87.3,20.377,56.023q-.95,1.82-1.739,3.727L57.922,99.035,68.39,109.5l10.832,10.832,3.478,3.478H92.79Zm40.376,0L104.451,95.091,93.619,84.259,83.151,73.791l-8.985-8.985L71.733,67.24,40.538,36.045q-1.709.87-3.35,1.881L78.1,78.847,88.571,89.315l12.463,12.463,22.035,22.035h10.1ZM15.16,76.461a47.005,47.005,0,0,1,.391-5.19L41.623,97.343l2.251-2.251,27.649,27.649,1.072,1.072H62.505l-9.578-9.578-5.1-5.1Z" transform="translate(-15.16 -31.36)"/></clipPath><linearGradient id="c" x1="1.183" y1="0.482" x2="0.013" y2="0.513" xlink:href="#a"/></defs><g transform="translate(-15.16 -31.36)"><g transform="translate(152.444 59.117)"><path d="M267.786,101.477h-6.6a4.141,4.141,0,0,0,.748-2.447v-16a4.259,4.259,0,0,0-4.327-4.327H229.291a4.127,4.127,0,0,0-3.067,1.247,4.219,4.219,0,0,0-1.234,3.08v16a4.111,4.111,0,0,0,.748,2.447h-6.6a9.512,9.512,0,0,1-.31-2.447v-16a10.045,10.045,0,0,1,1.416-5.258,10.809,10.809,0,0,1,3.8-3.8,10.032,10.032,0,0,1,5.244-1.429h28.317a10.028,10.028,0,0,1,5.258,1.429,11.035,11.035,0,0,1,3.8,3.8,9.994,9.994,0,0,1,1.429,5.258v16A9.6,9.6,0,0,1,267.786,101.477Zm6.464,8.008H229.318a10.043,10.043,0,0,1-5.709-1.7,10.693,10.693,0,0,1-3.822-4.455h54.47v6.154Z" transform="translate(-218.83 -72.54)" fill="#fff"/><path d="M355.982,109.485h-7.677L339.1,97.17H315.351v12.315H309.19V91.009h36.3a4.219,4.219,0,0,0,3.08-1.233,4.152,4.152,0,0,0,1.247-3.067v-3.68a4.259,4.259,0,0,0-4.327-4.327H315.351V89.182H309.19V72.54h36.3a10.093,10.093,0,0,1,5.271,1.429,10.865,10.865,0,0,1,3.8,3.8,10.045,10.045,0,0,1,1.416,5.258v3.68a10.047,10.047,0,0,1-1.233,4.907,10.616,10.616,0,0,1-3.323,3.694,10.457,10.457,0,0,1-4.712,1.773Z" transform="translate(-248.283 -72.54)" fill="#fff"/><path d="M408.973,109.485h-6.161v-16.7L382.2,72.54h7.805l18.961,19.3v17.647Zm1.854-18.476L406.7,86.917,421.362,72.54h8.244Z" transform="translate(-272.081 -72.54)" fill="#fff"/><path d="M495.871,97.17h-36.3V72.54h36.3a10.028,10.028,0,0,1,5.258,1.429,11.035,11.035,0,0,1,3.8,3.8,9.994,9.994,0,0,1,1.429,5.258v3.68a9.994,9.994,0,0,1-1.429,5.258,10.939,10.939,0,0,1-3.8,3.788A10.08,10.08,0,0,1,495.871,97.17Zm-30.15,12.315H459.56V99.023h6.161Zm30.15-18.476a4.22,4.22,0,0,0,3.08-1.233,4.153,4.153,0,0,0,1.247-3.067v-3.68a4.259,4.259,0,0,0-4.327-4.327h-30.15V91.009Z" transform="translate(-297.296 -72.54)" fill="#fff"/><path d="M583.156,78.7H536.37V72.54h46.786Zm-20.329,30.784h-6.161V80.554h6.161Z" transform="translate(-322.333 -72.54)" fill="#fff"/><path d="M659.909,78.7h-43.7V72.54h43.7Zm-37.565,22.776H616.21V80.554h6.134v7.394h32.024V94.1H622.344Zm37.565,8.008h-43.7v-6.154h43.7Z" transform="translate(-348.356 -72.54)" fill="#fff"/><path d="M735.519,109.485h-9.093L707.337,94.1h-16.13V72.54h6.134V87.949h10L726.426,72.54h9.093L713.053,91.009Zm-38.158,0H691.2V95.93h6.161Z" transform="translate(-372.8 -72.54)" fill="#fff"/></g><g transform="translate(214.611 119.205)"><path d="M341.527,159.761H311.06V155.75h30.467Zm-13.238,20.046h-4.011v-18.84h4.011Z" transform="translate(-311.06 -155.75)" fill="#6d6d6d"/><path d="M391.512,159.761H363.06V155.75h28.452ZM367.05,174.59h-3.99V160.967h3.99v4.813h20.855v4.011H367.05Zm24.461,5.217H363.06V175.8h28.452Z" transform="translate(-328.009 -155.75)" fill="#6d6d6d"/><path d="M440.116,179.807H418.055a6.6,6.6,0,0,1-3.417-.923,6.871,6.871,0,0,1-2.474-2.48,6.556,6.556,0,0,1-.923-3.411V162.571a6.317,6.317,0,0,1,.2-1.611h4.294a2.771,2.771,0,0,0-.485,1.611v10.421a2.741,2.741,0,0,0,2.8,2.8h22.062v4.017Zm-4.011-20.046H411.86a6.862,6.862,0,0,1,2.48-2.905,6.512,6.512,0,0,1,3.707-1.105H440.11v3.99Z" transform="translate(-343.714 -155.75)" fill="#6d6d6d"/><path d="M491.094,179.807h-4.011V169.79H460.627V155.75h4.011v10.03l26.456-.013Zm-26.463,0H460.62v-8.823h4.011Zm26.463-15.234h-4.011V155.75h4.011Z" transform="translate(-359.809 -155.75)" fill="#6d6d6d"/><path d="M544.457,179.807h-4.011V169.79H513.99V155.75H518v10.03l26.456-.013Zm-26.456,0H513.99v-8.823H518Zm26.456-15.234h-4.011V155.75h4.011Z" transform="translate(-377.205 -155.75)" fill="#6d6d6d"/><path d="M571.256,174.59h-4.314A6.9,6.9,0,0,1,566.76,173V155.75h4.011V173A2.694,2.694,0,0,0,571.256,174.59Zm19.157,5.217H573.568a6.564,6.564,0,0,1-3.707-1.105,6.964,6.964,0,0,1-2.5-2.905h29.26a7.168,7.168,0,0,1-2.507,2.905A6.46,6.46,0,0,1,590.412,179.807Zm6.612-5.217h-4.294a2.694,2.694,0,0,0,.485-1.591V155.75h4.011V173A6.236,6.236,0,0,1,597.025,174.59Z" transform="translate(-394.406 -155.75)" fill="#6d6d6d"/><path d="M643.159,179.81H619.52V175.8h23.639a2.74,2.74,0,0,0,2-.8,2.71,2.71,0,0,0,.816-2v-.4a2.674,2.674,0,0,0-.816-2,2.724,2.724,0,0,0-2-.8H623.531v4.8H619.52V160.977h4.011v4.813h18.038a2.674,2.674,0,0,0,2-.816,2.714,2.714,0,0,0,.8-2v-.384a2.767,2.767,0,0,0-.8-2.009,2.7,2.7,0,0,0-2-.809H619.52V155.76h22.048a6.513,6.513,0,0,1,3.424.93,7.124,7.124,0,0,1,2.467,2.48,6.57,6.57,0,0,1,.923,3.424,8.913,8.913,0,0,1-.283,2.346,6.547,6.547,0,0,1-1.038,2.083,6.9,6.9,0,0,1,2.137,2.4,6.524,6.524,0,0,1,.8,3.188v.4a6.557,6.557,0,0,1-.923,3.411,7.033,7.033,0,0,1-2.474,2.48A6.817,6.817,0,0,1,643.159,179.81Z" transform="translate(-411.603 -155.753)" fill="#6d6d6d"/></g><rect width="50.365" height="4.132" transform="translate(129.061 102.775) rotate(-90)" fill="#6d6d6d"/><g transform="translate(15.16 31.36)"><path d="M51.276,122.68a46.5,46.5,0,0,1-33.089-28.7l13.4,13.4,2.2-2.2ZM71.814,32.162a46.4,46.4,0,0,1,7.28,2.292L91.806,47.16,94.3,44.666,92.345,42.7c.694.613,1.362,1.247,2.015,1.9a46.244,46.244,0,0,1,12.45,22.54ZM51.559,32.1q2.154-.465,4.368-.741L81.77,57.2,84.263,54.7l23.673,23.673a46.224,46.224,0,0,1-1.072,9.026Zm61.419,91.7-16.2-16.2-5.049-5.049L73.061,83.882,64.069,74.9,61.7,77.269,28.89,44.47c-.9.883-1.759,1.806-2.575,2.764l41.7,41.7L86.69,107.608l5.049,5.042,11.149,11.156Zm-20.188,0-6.889-6.9L73.438,104.447,62.97,93.979l-8.992-8.992L51.666,87.3,20.377,56.023q-.95,1.82-1.739,3.727L57.922,99.035,68.39,109.5l10.832,10.832,3.478,3.478H92.79Zm40.376,0L104.451,95.091,93.619,84.259,83.151,73.791l-8.985-8.985L71.733,67.24,40.538,36.045q-1.709.87-3.35,1.881L78.1,78.847,88.571,89.315l12.463,12.463,22.035,22.035h10.1ZM15.16,76.461a47.005,47.005,0,0,1,.391-5.19L41.623,97.343l2.251-2.251,27.649,27.649,1.072,1.072H62.505l-9.578-9.578-5.1-5.1Z" transform="translate(-15.16 -31.36)" fill="url(#a)"/><g clip-path="url(#b)"><rect width="118.006" height="92.446" transform="translate(0 0.007)" fill="url(#c)"/></g></g></g></svg>