<svg width="837" height="746" viewBox="0 0 837 746" fill="none" xmlns="http://www.w3.org/2000/svg">
<path opacity="0.1" fill-rule="evenodd" clip-rule="evenodd" d="M746.492 619.002L134.229 0H48.1573L442.135 395.202L462.544 376.552L726.97 639.429L746.492 619.002ZM0 31.8073L658.645 692.714L632.912 707.812L381.796 457.369L361.387 476.019L0 117.012V31.8073ZM207.878 0L523.77 313.498L544.179 294.848L795.295 546.179L808.605 517.76L293.95 0H207.878ZM369.373 0L604.518 232.681L624.926 214.031L833.451 422.733L837 384.545L455.445 0H369.373ZM546.841 9.76905C610.433 21.6103 752.348 84.1914 811.267 239.786L705.674 134.99L684.378 150.976L546.841 9.76905ZM199.005 639.429C138.666 584.722 107.017 496.445 98.7356 459.145L380.021 739.783L322.344 722.021L218.526 619.891L199.005 639.429ZM89.8622 368.56C89.8622 357.014 91.6369 326.286 98.7356 295.736L541.517 739.783L507.798 746L302.823 537.298L280.64 557.724L89.8622 368.56Z" fill="url(#paint0_linear_161_21)"/>
<defs>
<linearGradient id="paint0_linear_161_21" x1="695.026" y1="78.1524" x2="182.55" y2="646.098" gradientUnits="userSpaceOnUse">
<stop stop-color="#3AA4CB"/>
<stop offset="1" stop-color="#5F5EA4"/>
</linearGradient>
</defs>
</svg>
