<svg xmlns="http://www.w3.org/2000/svg" xmlns:xlink="http://www.w3.org/1999/xlink" width="437" height="454" viewBox="0 0 437 454"><defs><linearGradient id="a" x1="0.5" x2="0.5" y2="1" gradientUnits="objectBoundingBox"><stop offset="0" stop-color="#3fb5d5"/><stop offset="1" stop-color="#9b58a1"/><stop offset="1" stop-color="gray"/></linearGradient></defs><path d="M302.881,454V407.473l134.12-135V318.84L303.2,454ZM394.4,411.831,437,369.548V393.2l-29.527,29.527Zm-246.226-2.179,136.186-135.1-10.895-9.806L437,98.048v46.745L161.246,420.547ZM0,371.519,333.387,35.953l16.342,7.627L203.736,191.752l10.9,9.8L0,418.368Zm91.518,4.358,145.993-144.9-10.895-9.806L437,7.6V54.364L104.592,386.772Zm211.362-58.833L437,182.4v45.651l-134.12,135.84ZM0,281.091,280,0l16.343,7.627L159.067,145.993l10.9,9.806L0,327.939Z" fill="url(#a)"/></svg>