<svg width="144" height="144" viewBox="0 0 144 144" fill="none" xmlns="http://www.w3.org/2000/svg">
<path d="M44.0704 128.2C34.9813 126.102 26.5425 121.769 19.5002 115.584C12.458 109.399 7.02912 101.552 3.69368 92.737L20.045 109.295L22.7295 106.576L44.0704 128.2ZM69.1318 16.3521C72.1647 17.0475 75.1359 17.9947 78.0152 19.1842L93.527 34.8842L96.5703 31.8025L94.1847 29.3733C95.0315 30.1307 95.8466 30.9141 96.6435 31.721C104.209 39.3611 109.478 49.0193 111.836 59.5723L69.1318 16.3521ZM44.4157 16.2755C46.168 15.8924 47.9447 15.5872 49.7458 15.3599L81.2806 47.2901L84.3226 44.201L113.21 73.4523C113.136 77.2044 112.698 80.9401 111.901 84.6052L44.4157 16.2755ZM119.362 129.584L99.594 109.566L93.433 103.328L70.6534 80.2595L59.681 69.1609L56.7902 72.0882L16.754 31.5604C15.6558 32.6514 14.6076 33.7919 13.6118 34.9757L64.4961 86.5019L87.2842 109.576L93.4452 115.806L107.05 129.591L119.362 129.584ZM94.7277 129.584L86.3214 121.058L71.1135 105.67L58.34 92.7357L47.3675 81.6248L44.5463 84.4829L6.36602 45.8357C5.5932 47.335 4.88587 48.8701 4.24402 50.441L52.1802 98.9831L64.9537 111.914L78.1714 125.299L82.4154 129.596H94.7277V129.584ZM143.996 129.584L108.957 94.1098L95.7393 80.7253L82.9657 67.7906L72.0018 56.6884L69.033 59.6959L30.9674 21.1501C29.5771 21.8667 28.2145 22.6415 26.8796 23.4743L76.8023 74.038L89.5795 86.9727L104.787 102.372L131.676 129.6H144L143.996 129.584ZM0 71.0898C0.0419535 68.9448 0.201236 66.8039 0.477116 64.6768L32.2914 96.8924L35.0381 94.111L68.7767 128.275L70.0848 129.6H57.7725L46.085 117.765L39.8618 111.463L0 71.0898Z" fill="url(#paint0_linear_350_286)"/>
<defs>
<linearGradient id="paint0_linear_350_286" x1="0" y1="72.4799" x2="144" y2="72.4799" gradientUnits="userSpaceOnUse">
<stop stop-color="#00B8D6"/>
<stop offset="0.094" stop-color="#00B4D3"/>
<stop offset="0.219" stop-color="#00ACCF"/>
<stop offset="0.361" stop-color="#009EC7"/>
<stop offset="0.516" stop-color="#368BBC"/>
<stop offset="0.683" stop-color="#5173AE"/>
<stop offset="0.855" stop-color="#64539E"/>
<stop offset="1" stop-color="#6F2C91"/>
</linearGradient>
</defs>
</svg>
