<?xml version="1.0" standalone="no"?>
<!DOCTYPE svg PUBLIC "-//W3C//DTD SVG 20010904//EN"
 "http://www.w3.org/TR/2001/REC-SVG-20010904/DTD/svg10.dtd">
<svg version="1.0" xmlns="http://www.w3.org/2000/svg"
 width="256.000000pt" height="256.000000pt" viewBox="0 0 256.000000 256.000000"
 preserveAspectRatio="xMidYMid meet">
<metadata>
Created by potrace 1.14, written by Peter Selinger 2001-2017
</metadata>
<g transform="translate(0.000000,256.000000) scale(0.100000,-0.100000)"
fill="#000000" stroke="none">
<path d="M826 2271 l-39 -6 598 -598 c329 -329 600 -595 603 -592 8 8 11 28
18 111 l6 72 -257 257 -257 257 -27 -26 -27 -26 -279 280 c-154 154 -284 279
-290 279 -5 -1 -27 -5 -49 -8z"/>
<path d="M1240 2254 c0 -2 167 -171 370 -374 204 -204 370 -364 370 -356 0 26
-40 137 -73 204 -39 77 -94 159 -150 222 l-38 43 -29 -28 -29 -28 -119 119
c-169 168 -162 163 -235 184 -37 10 -67 17 -67 14z"/>
<path d="M506 2154 l-29 -16 934 -934 933 -933 103 0 c57 0 103 3 103 7 0 4
-286 293 -635 642 l-634 634 -28 -27 -29 -27 -334 335 c-184 184 -339 335
-345 335 -5 -1 -23 -8 -39 -16z"/>
<path d="M267 1962 l-26 -28 832 -831 832 -832 103 0 c56 0 102 3 102 7 0 4
-236 243 -525 532 l-524 524 -25 -23 c-21 -19 -28 -22 -40 -12 -8 7 -167 165
-354 352 -186 186 -341 339 -343 339 -3 0 -17 -13 -32 -28z"/>
<path d="M96 1712 c-9 -17 -16 -36 -16 -43 0 -6 312 -323 693 -704 l692 -692
110 -2 110 -1 -422 422 -422 422 -26 -24 -26 -24 -338 338 -339 339 -16 -31z"/>
<path d="M8 1397 c-3 -7 -6 -31 -7 -54 l-2 -42 514 -514 515 -515 101 0 c55
-1 101 3 101 7 0 7 -531 544 -589 595 -21 19 -21 19 -45 -3 l-24 -23 -280 280
c-154 155 -282 275 -284 269z"/>
<path d="M81 882 c18 -52 109 -197 163 -260 111 -128 261 -231 422 -288 52
-19 99 -34 104 -34 5 0 -73 83 -175 185 -101 102 -188 185 -193 185 -5 0 -17
-9 -27 -20 -19 -21 -20 -20 -162 122 -116 116 -141 137 -132 110z"/>
</g>
</svg>
