<!-- Generated by IcoMoon.io -->
<svg version="1.1" xmlns="http://www.w3.org/2000/svg" width="768" height="768" viewBox="0 0 768 768">
<title></title>
<g id="icomoon-ignore">
</g>
<path fill="#000" d="M238.864 134.4c1.579 0.818 3.448 1.298 5.428 1.298 3.325 0 6.334-1.352 8.508-3.537l0.001-0.001c55.376-56.544 155.296-31.632 198.608-11.632l-12.8 22.096c-1.013 1.723-1.612 3.795-1.612 6.007 0 6.628 5.372 12 12 12 0.461 0 0.916-0.026 1.363-0.077l-0.055 0.005 123.84-13.6c6.035-0.687 10.68-5.765 10.68-11.927 0-1.461-0.261-2.861-0.739-4.156l0.027 0.083-44.912-123.072c-1.742-4.614-6.122-7.835-11.254-7.835-4.397 0-8.242 2.365-10.331 5.892l-0.031 0.055-12.464 21.6c-29.791-16.676-65.372-26.497-103.246-26.497-31.194 0-60.832 6.662-87.568 18.641l1.358-0.544c-42.602 18.429-73.84 56.068-83.048 101.689l-0.152 0.903c-0.103 0.589-0.161 1.268-0.161 1.96 0 4.642 2.636 8.67 6.494 10.665l0.067 0.031zM325.936 40.848c22.462-9.935 48.658-15.718 76.205-15.718 37.598 0 72.68 10.774 102.325 29.405l-0.801-0.47c1.718 1.007 3.785 1.601 5.99 1.601 4.386 0 8.223-2.354 10.316-5.867l0.031-0.055 5.488-9.488 30.928 84.544-85.072 9.344 7.216-12.544c1.007-1.719 1.602-3.785 1.602-5.99 0-4.419-2.389-8.281-5.945-10.363l-0.057-0.031c-31.69-17.094-68.941-28.253-108.512-30.977l-0.848-0.047q-8.416-0.592-16.848-0.592c-1.098-0.026-2.393-0.040-3.69-0.040-27.472 0-53.437 6.46-76.456 17.944l0.994-0.448c13.693-21.982 33.175-39.215 56.329-49.814l0.807-0.331zM757.936 348.656l-42.928-6.88c-2.696-8.387-5.726-15.523-9.306-22.323l0.362 0.755 25.504-35.2c1.425-1.949 2.28-4.394 2.28-7.037 0-3.313-1.342-6.311-3.512-8.483l-33.136-33.136c-2.171-2.17-5.171-3.512-8.482-3.512-2.644 0-5.088 0.855-7.071 2.304l0.034-0.024-35.2 25.504c-6.049-3.219-13.191-6.25-20.608-8.668l-0.976-0.275-6.864-42.928c-0.951-5.758-5.893-10.096-11.848-10.096-0.003 0-0.006 0-0.008 0h-46.928c-5.952 0.004-10.889 4.34-11.83 10.026l-0.010 0.070-6.88 42.928c-8.393 2.695-15.534 5.725-22.339 9.306l0.755-0.362-35.2-25.504c-1.949-1.425-4.393-2.28-7.037-2.28-3.313 0-6.311 1.342-8.482 3.512l-33.136 33.136c-2.17 2.171-3.512 5.171-3.512 8.483 0 2.644 0.855 5.088 2.304 7.071l-0.024-0.034 25.504 35.2c-3.22 6.046-6.25 13.181-8.668 20.593l-0.275 0.975-42.928 6.88c-5.758 0.951-10.096 5.893-10.096 11.848 0 0.003 0 0.006 0 0.008v-0.001 46.848c0 0.002 0 0.005 0 0.008 0 5.955 4.338 10.897 10.026 11.839l0.070 0.010 42.928 6.864c2.694 8.393 5.725 15.534 9.306 22.339l-0.362-0.755-25.504 35.2c-1.425 1.949-2.28 4.393-2.28 7.037 0 3.313 1.342 6.311 3.512 8.482l33.136 33.136c2.171 2.17 5.171 3.512 8.482 3.512 2.644 0 5.088-0.855 7.071-2.304l-0.034 0.024 35.2-25.504c6.050 3.22 13.191 6.25 20.608 8.668l0.976 0.275 6.864 42.928c0.951 5.758 5.893 10.096 11.848 10.096 0.003 0 0.006 0 0.008 0h46.864c5.952-0.004 10.889-4.34 11.831-10.026l0.010-0.070 6.88-42.928c8.387-2.695 15.522-5.725 22.322-9.306l-0.755 0.362 35.2 25.552c1.949 1.425 4.394 2.28 7.037 2.28 3.313 0 6.311-1.342 8.482-3.512l33.136-33.136c2.17-2.171 3.512-5.171 3.512-8.482 0-2.644-0.855-5.088-2.304-7.071l0.024 0.034-25.504-35.2c3.22-6.051 6.25-13.192 8.669-20.608l0.275-0.975 42.928-6.864c5.776-0.929 10.136-5.874 10.144-11.839v-46.849c0-0.002 0-0.005 0-0.008 0-5.955-4.338-10.897-10.026-11.839l-0.070-0.010zM744.032 397.136l-40.352 6.4c-4.753 0.782-8.522 4.267-9.71 8.797l-0.019 0.083c-2.953 11.356-7.207 21.32-12.703 30.45l0.287-0.514c-1.052 1.748-1.673 3.858-1.673 6.113 0 2.644 0.856 5.089 2.305 7.073l-0.024-0.034 24 33.12-18.656 18.656-33.12-24c-1.949-1.426-4.394-2.281-7.039-2.281-2.255 0-4.365 0.622-6.167 1.704l0.054-0.030c-8.616 5.207-18.58 9.461-29.14 12.239l-0.795 0.178c-4.613 1.207-8.098 4.975-8.87 9.659l-0.010 0.070-6.4 40.352h-26.512l-6.4-40.352c-0.787-4.751-4.269-8.518-8.796-9.71l-0.084-0.019c-11.356-2.953-21.32-7.206-30.449-12.703l0.514 0.286c-1.748-1.052-3.858-1.673-6.112-1.673-2.644 0-5.090 0.856-7.073 2.305l0.034-0.024-33.12 24-18.656-18.656 24-33.12c1.426-1.949 2.282-4.394 2.282-7.039 0-2.255-0.622-4.365-1.704-6.167l0.030 0.054c-5.208-8.616-9.461-18.58-12.238-29.141l-0.178-0.795c-1.207-4.613-4.975-8.098-9.659-8.87l-0.070-0.010-40.368-6.4v-26.336l40.368-6.4c4.753-0.782 8.522-4.267 9.709-8.797l0.019-0.083c2.954-11.357 7.208-21.32 12.703-30.45l-0.287 0.514c1.052-1.748 1.673-3.858 1.673-6.113 0-2.644-0.856-5.089-2.305-7.073l0.024 0.034-24-33.12 18.656-18.656 33.12 24c1.949 1.426 4.394 2.281 7.039 2.281 2.255 0 4.365-0.622 6.167-1.704l-0.054 0.030c8.616-5.208 18.58-9.461 29.141-12.238l0.795-0.178c4.613-1.207 8.098-4.975 8.87-9.659l0.010-0.070 6.4-40.352h26.384l6.4 40.352c0.782 4.753 4.267 8.522 8.797 9.709l0.083 0.019c11.357 2.953 21.32 7.207 30.45 12.703l-0.514-0.287c1.748 1.051 3.858 1.673 6.112 1.673 2.644 0 5.089-0.856 7.073-2.306l-0.034 0.024 33.12-24 18.656 18.656-24 33.12c-1.426 1.949-2.282 4.394-2.282 7.040 0 2.255 0.622 4.365 1.704 6.167l-0.030-0.054c5.208 8.616 9.461 18.58 12.239 29.141l0.178 0.795c1.207 4.613 4.975 8.098 9.659 8.87l0.070 0.010 40.368 6.4zM582.72 302.736c-0.010 0-0.021 0-0.032 0-44.864 0-81.232 36.369-81.232 81.232s36.369 81.232 81.232 81.232c44.852 0 81.214-36.35 81.232-81.198v-0.002c-0.055-44.841-36.391-81.178-81.226-81.232h-0.005zM582.72 441.2c-0.010 0-0.021 0-0.032 0-31.608 0-57.232-25.624-57.232-57.232s25.624-57.232 57.232-57.232c31.608 0 57.232 25.624 57.232 57.232 0 0.011 0 0.022 0 0.034v-0.001c-0.037 31.594-25.638 57.196-57.229 57.232h-0.004zM241.6 540.8v-8.96c10.449-4.871 17.569-15.272 17.6-27.34v-17.732c0.426-31.226 9.714-60.196 25.454-84.617l-0.382 0.633c12.458-18.048 19.899-40.392 19.899-64.475 0-0.559-0.004-1.117-0.012-1.674l0.001 0.084c0-68.266-55.341-123.608-123.608-123.608s-123.608 55.341-123.608 123.608v0c-0.008 0.487-0.012 1.061-0.012 1.636 0 24.062 7.429 46.39 20.119 64.814l-0.25-0.386c15.374 23.783 24.678 52.754 25.119 83.867l0.002 0.117v17.728c0.015 12.526 7.66 23.264 18.537 27.814l0.199 0.074v8.416c0.015 12.453 7.571 23.138 18.347 27.733l0.197 0.075v8.448c0.018 16.635 13.494 30.117 30.125 30.144h23.538c16.633-0.027 30.109-13.509 30.128-30.143v-8.449c10.999-4.652 18.581-15.341 18.608-27.805v-0.004zM211.472 546.928h-60.8c-3.37-0.044-6.091-2.76-6.144-6.123v-6.149h73.072v6.144c-0.053 3.337-2.731 6.032-6.056 6.112h-0.007zM132.064 510.64c-3.368-0.053-6.084-2.774-6.128-6.139v-6.149h109.264v6.144c-0.044 3.37-2.76 6.091-6.123 6.144h-0.005zM149.296 351.472h-13.936c-7.697 0-13.936-6.239-13.936-13.936s6.239-13.936 13.936-13.936c7.697 0 13.936 6.239 13.936 13.936v0zM187.84 474.368h-14.544v-98.896h14.544zM80.96 336.768c0-55.012 44.596-99.608 99.608-99.608s99.608 44.596 99.608 99.608v0c0.004 0.346 0.007 0.754 0.007 1.164 0 19.757-6.221 38.062-16.81 53.062l0.194-0.289c-15.281 23.81-25.213 52.401-27.438 83.128l-0.034 0.584h-24.256v-98.944h13.936c20.951 0 37.936-16.984 37.936-37.936s-16.985-37.936-37.936-37.936c-20.951 0-37.936 16.985-37.936 37.936 0 0.022 0 0.045 0 0.067v-0.004 13.936h-14.544v-13.936c0-0.019 0-0.041 0-0.064 0-20.951-16.984-37.936-37.936-37.936s-37.936 16.985-37.936 37.936c0 20.951 16.985 37.936 37.936 37.936h13.936v98.896h-24.272c-2.245-31.306-12.16-59.898-27.857-84.435l0.433 0.723c-10.414-14.719-16.647-33.040-16.647-52.817 0-0.394 0.002-0.786 0.008-1.179l-0.001 0.059zM211.84 351.52v-13.92c0-7.697 6.239-13.936 13.936-13.936s13.936 6.239 13.936 13.936c0 7.697-6.239 13.936-13.936 13.936v0zM192.944 583.184h-23.536c-3.37-0.044-6.091-2.76-6.144-6.123v-6.149h35.808v6.144c-0.053 3.363-2.765 6.075-6.123 6.128h-0.005zM168.56 187.392v-26.288c0-6.628 5.372-12 12-12s12 5.372 12 12v0 26.288c0 6.628-5.372 12-12 12s-12-5.372-12-12v0zM72.848 193.184c-1.010-1.721-1.607-3.791-1.607-6 0-6.631 5.375-12.007 12.007-12.007 4.422 0 8.286 2.39 10.37 5.95l0.031 0.057 13.152 22.768c1.010 1.721 1.606 3.791 1.606 6 0 6.631-5.375 12.007-12.007 12.007-4.422 0-8.286-2.39-10.369-5.95l-0.031-0.057zM45.152 277.568c-2.113 3.611-5.974 5.997-10.39 5.997-2.213 0-4.286-0.599-6.066-1.644l0.056 0.031-22.752-13.152c-3.616-2.114-6.007-5.978-6.007-10.4 0-6.631 5.375-12.007 12.007-12.007 2.209 0 4.279 0.596 6.057 1.637l-0.057-0.031 22.768 13.152c3.607 2.115 5.99 5.972 5.99 10.387 0 2.208-0.596 4.276-1.637 6.054l0.031-0.057zM283.872 176.768c3.607 2.115 5.99 5.972 5.99 10.387 0 2.208-0.596 4.276-1.637 6.054l0.031-0.057-13.056 22.848c-2.114 3.616-5.978 6.007-10.4 6.007-6.631 0-12.007-5.375-12.007-12.007 0-2.209 0.596-4.279 1.637-6.057l-0.031 0.057 13.152-22.768c2.113-3.611 5.974-5.997 10.39-5.997 2.213 0 4.286 0.599 6.066 1.644l-0.056-0.031zM359.504 252.4c1.027 1.732 1.633 3.817 1.633 6.044 0 4.393-2.36 8.234-5.882 10.325l-0.055 0.031-22.768 13.152c-1.721 1.010-3.791 1.607-6 1.607-6.631 0-12.007-5.375-12.007-12.007 0-4.422 2.39-8.286 5.95-10.37l0.057-0.031 22.768-13.152c1.706-0.988 3.752-1.571 5.935-1.571 4.413 0 8.269 2.382 10.354 5.93l0.031 0.056zM568.704 639.84c-1.579-0.816-3.446-1.295-5.425-1.295-3.357 0-6.393 1.377-8.573 3.597l-0.001 0.001c-51.712 52.8-144.896 29.888-185.952 11.2l11.664-20.208c1.013-1.723 1.612-3.795 1.612-6.008 0-6.628-5.372-12-12-12-0.46 0-0.916 0.026-1.363 0.077l0.055-0.005-116.8 12.8c-6.035 0.687-10.68 5.764-10.68 11.927 0 1.461 0.261 2.861 0.739 4.156l-0.027-0.083 42.416 116.080c1.729 4.64 6.122 7.886 11.272 7.886 4.418 0 8.278-2.387 10.361-5.942l0.031-0.056 11.44-19.824c28.051 15.596 61.522 24.777 97.138 24.777 29.545 0 57.613-6.318 82.93-17.676l-1.283 0.515c40.401-17.477 70.024-53.173 78.751-96.44l0.144-0.856c0.103-0.589 0.161-1.268 0.161-1.96 0-4.643-2.636-8.67-6.494-10.665l-0.067-0.031zM485.952 728.096c-21.106 9.33-45.719 14.761-71.602 14.761-35.351 0-68.335-10.132-96.207-27.65l0.753 0.442c-1.726-1.019-3.805-1.621-6.023-1.621-4.407 0-8.26 2.376-10.346 5.917l-0.031 0.056-4.448 7.696-28.352-77.568 78.080-8.576-6.144 10.64c-1.014 1.723-1.613 3.796-1.613 6.009 0 4.417 2.387 8.277 5.941 10.36l0.056 0.031c30.013 16.207 65.298 26.785 102.781 29.364l0.803 0.044c5.047 0.524 10.905 0.823 16.833 0.823 26.119 0 50.883-5.799 73.075-16.18l-1.060 0.446c-12.865 19.648-30.695 35.077-51.733 44.711l-0.762 0.313z"></path>
</svg>
