<svg width="48" height="48" viewBox="0 0 48 48" fill="none" xmlns="http://www.w3.org/2000/svg">
<path fill-rule="evenodd" clip-rule="evenodd" d="M34.7349 20.952C34.5319 25.225 32.2269 29.312 28.2499 31.607C26.6154 32.5538 24.7934 33.1314 22.9119 33.299C22.7796 33.3086 22.6506 33.3445 22.5323 33.4044C22.414 33.4644 22.3088 33.5473 22.2229 33.6483C22.1369 33.7493 22.0719 33.8664 22.0317 33.9928C21.9914 34.1191 21.9767 34.2523 21.9884 34.3844C22 34.5165 22.0379 34.6449 22.0997 34.7623C22.1615 34.8796 22.246 34.9835 22.3483 35.0679C22.4506 35.1523 22.5687 35.2154 22.6957 35.2537C22.8227 35.292 22.956 35.3047 23.0879 35.291C25.2598 35.0979 27.363 34.4316 29.2499 33.339C33.8379 30.69 36.4979 25.977 36.7329 21.048C36.7456 20.783 36.6526 20.5239 36.4743 20.3275C36.2959 20.1312 36.0469 20.0137 35.7819 20.001C35.517 19.9883 35.2578 20.0813 35.0615 20.2597C34.8651 20.438 34.7476 20.687 34.7349 20.952ZM10.3099 26.524C6.97991 20.361 9.14391 12.616 15.2499 9.09099C16.8163 8.18477 18.555 7.61642 20.3543 7.42249C22.1535 7.22857 23.9734 7.41336 25.6969 7.96499C25.9469 8.03618 26.2148 8.00723 26.4438 7.88428C26.6728 7.76134 26.8449 7.55406 26.9237 7.30637C27.0025 7.05867 26.9818 6.79003 26.8659 6.55738C26.75 6.32472 26.5481 6.14632 26.3029 6.05999C24.3145 5.42349 22.2149 5.21015 20.1391 5.4337C18.0633 5.65724 16.0572 6.31272 14.2499 7.35799C7.20391 11.426 4.70691 20.363 8.54991 27.475C8.67589 27.7084 8.88942 27.8822 9.14354 27.9581C9.39765 28.0341 9.67152 28.006 9.90491 27.88C10.1383 27.754 10.3121 27.5405 10.388 27.2864C10.464 27.0323 10.4359 26.7574 10.3099 26.524Z" fill="url(#paint0_linear_185_93)"/>
<path fill-rule="evenodd" clip-rule="evenodd" d="M17.7499 13.42C15.9131 14.4815 14.573 16.2288 14.0239 18.2779C13.4749 20.3271 13.7619 22.5104 14.8219 24.348C15.8834 26.1848 17.6307 27.5249 19.6798 28.074C21.729 28.623 23.9123 28.336 25.7499 27.276C27.5867 26.2145 28.9269 24.4672 29.4759 22.4181C30.0249 20.3689 29.7379 18.1856 28.6779 16.348C27.6164 14.5112 25.8691 13.171 23.82 12.622C21.7708 12.073 19.5875 12.36 17.7499 13.42ZM18.7499 15.152C20.1282 14.3575 21.7656 14.1425 23.3023 14.5542C24.839 14.9659 26.1495 15.9708 26.9459 17.348C27.7408 18.7264 27.9559 20.364 27.5442 21.9009C27.1324 23.4379 26.1274 24.7486 24.7499 25.545C23.3714 26.3398 21.7337 26.5548 20.1968 26.1428C18.6598 25.7309 17.3492 24.7257 16.5529 23.348C15.7585 21.9695 15.5436 20.3321 15.9555 18.7954C16.3675 17.2587 17.3725 15.9483 18.7499 15.152ZM25.6869 32.74C25.5447 32.7856 25.4144 32.8625 25.3057 32.9649C25.197 33.0674 25.1126 33.1928 25.0586 33.3321C25.0046 33.4714 24.9825 33.621 24.9938 33.7699C25.0051 33.9189 25.0495 34.0634 25.1239 34.193L30.7859 44C31.3201 44.9112 32.1931 45.5742 33.2142 45.8441C34.2354 46.1141 35.3219 45.9692 36.2367 45.4411C37.1514 44.9129 37.8202 44.0444 38.0969 43.0251C38.3737 42.0057 38.236 40.9182 37.7139 40L32.0529 30.194C31.9782 30.0645 31.8753 29.9534 31.752 29.8689C31.6286 29.7844 31.4879 29.7286 31.3402 29.7057C31.1924 29.6827 31.0414 29.6932 30.8982 29.7364C30.7551 29.7795 30.6234 29.8542 30.5129 29.955C29.8205 30.5861 29.0617 31.1393 28.2499 31.607C27.4209 32.086 26.5629 32.462 25.6869 32.74ZM27.4519 34.225C28.6898 33.7142 29.8546 33.0417 30.9159 32.225L35.9819 40.999C36.1153 41.2265 36.2024 41.4782 36.2381 41.7395C36.2738 42.0009 36.2575 42.2667 36.1901 42.5217C36.1227 42.7767 36.0055 43.0158 35.8453 43.2253C35.6851 43.4349 35.485 43.6106 35.2566 43.7425C35.0281 43.8744 34.7759 43.9598 34.5143 43.9938C34.2528 44.0278 33.9871 44.0097 33.7325 43.9406C33.478 43.8715 33.2396 43.7527 33.0312 43.5911C32.8227 43.4295 32.6483 43.2283 32.5179 42.999L27.4519 34.225ZM33.0719 15.93C33.7438 15.5235 34.2296 14.8699 34.4251 14.1094C34.6205 13.3489 34.5102 12.5421 34.1176 11.862C33.725 11.1819 33.0815 10.6828 32.3252 10.4717C31.5688 10.2607 30.7599 10.3545 30.0719 10.733C29.4053 11.1419 28.9247 11.795 28.7323 12.553C28.54 13.3111 28.6512 14.1143 29.0423 14.7915C29.4333 15.4688 30.0733 15.9667 30.8259 16.1791C31.5786 16.3916 32.3844 16.3018 33.0719 15.929V15.93ZM32.0719 14.197C31.9581 14.2627 31.8325 14.3053 31.7023 14.3224C31.572 14.3395 31.4397 14.3308 31.3128 14.2968C31.1859 14.2627 31.0669 14.204 30.9627 14.124C30.8585 14.044 30.7711 13.9443 30.7054 13.8305C30.6398 13.7167 30.5971 13.5911 30.58 13.4608C30.5629 13.3306 30.5716 13.1982 30.6057 13.0713C30.6397 12.9444 30.6984 12.8255 30.7784 12.7213C30.8584 12.6171 30.9581 12.5297 31.0719 12.464C31.3017 12.3314 31.5748 12.2955 31.8311 12.3642C32.0873 12.433 32.3058 12.6007 32.4384 12.8305C32.571 13.0603 32.6069 13.3334 32.5382 13.5896C32.4694 13.8459 32.3017 14.0644 32.0719 14.197ZM18.3139 34.83C18.856 34.2632 19.1547 33.5066 19.1459 32.7223C19.1372 31.9381 18.8217 31.1884 18.2671 30.6338C17.7125 30.0792 16.9628 29.7637 16.1786 29.755C15.3943 29.7462 14.6377 30.0449 14.0709 30.587C13.5333 31.1547 13.2384 31.9097 13.2491 32.6915C13.2598 33.4733 13.5751 34.22 14.1281 34.7728C14.681 35.3256 15.4278 35.6408 16.2096 35.6513C16.9914 35.6618 17.7464 35.3667 18.3139 34.829V34.83ZM16.8999 33.414C16.8071 33.5069 16.6968 33.5806 16.5755 33.6309C16.4542 33.6812 16.3241 33.7071 16.1928 33.7072C16.0614 33.7072 15.9313 33.6814 15.81 33.6312C15.6886 33.581 15.5783 33.5073 15.4854 33.4145C15.3925 33.3216 15.3188 33.2114 15.2685 33.0901C15.2182 32.9687 15.1923 32.8387 15.1922 32.7073C15.1922 32.576 15.218 32.4459 15.2682 32.3246C15.3184 32.2032 15.3921 32.0929 15.4849 32C15.6726 31.8124 15.927 31.7069 16.1924 31.7069C16.4578 31.7069 16.7123 31.8124 16.8999 32C17.0876 32.1876 17.193 32.4421 17.193 32.7075C17.193 32.9729 17.0876 33.2264 16.8999 33.414ZM37.4999 7.59899C38.1665 7.19004 38.6472 6.53701 38.8395 5.77896C39.0318 5.02091 38.9206 4.21773 38.5296 3.54045C38.1385 2.86317 37.4985 2.36529 36.7459 2.15284C35.9932 1.94039 35.1874 2.03014 34.4999 2.40299C33.8333 2.81194 33.3527 3.46497 33.1603 4.22302C32.968 4.98107 33.0792 5.78425 33.4703 6.46153C33.8613 7.13882 34.5013 7.63669 35.2539 7.84915C36.0066 8.0616 36.8124 7.97184 37.4999 7.59899ZM36.4999 5.86699C36.3861 5.93265 36.2605 5.97526 36.1303 5.99238C36 6.00949 35.8677 6.00079 35.7408 5.96675C35.6139 5.93272 35.4949 5.87403 35.3907 5.79403C35.2865 5.71403 35.1991 5.61428 35.1334 5.50049C35.0678 5.3867 35.0251 5.26109 35.008 5.13084C34.9909 5.00058 34.9996 4.86823 35.0337 4.74134C35.0677 4.61445 35.1264 4.4955 35.2064 4.39129C35.2864 4.28708 35.3861 4.19965 35.4999 4.13399C35.7297 4.00138 36.0028 3.9655 36.2591 4.03423C36.5153 4.10296 36.7338 4.27068 36.8664 4.50049C36.999 4.7303 37.0349 5.00338 36.9662 5.25965C36.8974 5.51591 36.7297 5.73438 36.4999 5.86699ZM9.12091 36.95C9.65867 36.3824 9.95369 35.6274 9.9432 34.8457C9.93271 34.0639 9.61753 33.3171 9.06475 32.7641C8.51196 32.2112 7.76522 31.8959 6.98344 31.8852C6.20167 31.8745 5.44659 32.1694 4.87891 32.707C4.34484 33.2751 4.05286 34.0288 4.06481 34.8085C4.07675 35.5881 4.39169 36.3325 4.94293 36.884C5.49416 37.4355 6.23841 37.7508 7.01805 37.7631C7.7977 37.7754 8.55154 37.4838 9.11991 36.95H9.12091ZM7.70691 35.535C7.614 35.6278 7.50372 35.7015 7.38235 35.7517C7.26098 35.8019 7.13091 35.8277 6.99956 35.8277C6.86821 35.8276 6.73816 35.8017 6.61683 35.7514C6.49549 35.7011 6.38526 35.6274 6.29241 35.5345C6.19957 35.4416 6.12593 35.3313 6.07571 35.2099C6.02549 35.0886 5.99966 34.9585 5.99971 34.8271C5.99976 34.6958 6.02567 34.5657 6.07598 34.4444C6.12629 34.3231 6.2 34.2128 6.29291 34.12C6.48055 33.9325 6.735 33.8272 7.00027 33.8273C7.26554 33.8274 7.51991 33.9329 7.70741 34.1205C7.89492 34.3081 8.00021 34.5626 8.00012 34.8278C8.00002 35.0931 7.89455 35.3475 7.70691 35.535ZM39.4999 11.063C38.8333 11.4719 38.3526 12.125 38.1603 12.883C37.968 13.6411 38.0792 14.4443 38.4703 15.1215C38.8613 15.7988 39.5013 16.2967 40.2539 16.5091C41.0066 16.7216 41.8124 16.6318 42.4999 16.259C43.1665 15.85 43.6472 15.197 43.8395 14.439C44.0318 13.6809 43.9206 12.8777 43.5296 12.2005C43.1385 11.5232 42.4985 11.0253 41.7459 10.8128C40.9932 10.6004 40.1874 10.6901 39.4999 11.063ZM40.4999 12.795C40.6137 12.7293 40.7393 12.6867 40.8696 12.6696C40.9998 12.6525 41.1322 12.6612 41.2591 12.6952C41.386 12.7293 41.5049 12.788 41.6091 12.868C41.7133 12.948 41.8008 13.0477 41.8664 13.1615C41.9321 13.2753 41.9747 13.4009 41.9918 13.5311C42.0089 13.6614 42.0002 13.7938 41.9662 13.9206C41.9321 14.0475 41.8734 14.1665 41.7934 14.2707C41.7134 14.3749 41.6137 14.4623 41.4999 14.528C41.2701 14.6606 40.997 14.6965 40.7408 14.6278C40.4845 14.559 40.266 14.3913 40.1334 14.1615C40.0008 13.9317 39.9649 13.6586 40.0336 13.4023C40.1024 13.1461 40.2701 12.9276 40.4999 12.795ZM11.9499 39.778C11.4078 40.3448 11.1092 41.1014 11.1179 41.8856C11.1267 42.6699 11.4421 43.4196 11.9967 43.9742C12.5513 44.5288 13.301 44.8443 14.0853 44.853C14.8695 44.8617 15.6261 44.5631 16.1929 44.021C16.735 43.4542 17.0337 42.6976 17.0249 41.9133C17.0162 41.1291 16.7007 40.3794 16.1461 39.8248C15.5915 39.2702 14.8418 38.9547 14.0576 38.946C13.2733 38.9372 12.5167 39.2359 11.9499 39.778ZM13.3639 41.193C13.4568 41.1001 13.5671 41.0265 13.6885 40.9763C13.8098 40.9261 13.9399 40.9002 14.0713 40.9003C14.2026 40.9003 14.3327 40.9263 14.454 40.9766C14.5753 41.0269 14.6856 41.1006 14.7784 41.1935C14.8713 41.2864 14.9449 41.3967 14.9951 41.5181C15.0453 41.6394 15.0712 41.7695 15.0711 41.9008C15.0711 42.0322 15.0452 42.1622 14.9948 42.2836C14.9445 42.4049 14.8708 42.5151 14.7779 42.608C14.5903 42.7955 14.3358 42.9008 14.0706 42.9007C13.8053 42.9006 13.5509 42.7951 13.3634 42.6075C13.1759 42.4198 13.0706 42.1654 13.0707 41.9001C13.0708 41.6349 13.1763 41.3805 13.3639 41.193Z" fill="url(#paint1_linear_185_93)"/>
<path fill-rule="evenodd" clip-rule="evenodd" d="M29.7059 12.097L29.7179 12.116L29.7439 12.157L29.7559 12.174C30.0889 12.656 30.5729 12.598 30.5729 12.598L30.6329 12.574C30.8989 12.461 31.9329 11.954 31.4319 11.086L30.9389 10.232C30.8063 10.0023 30.7704 9.72937 30.839 9.47319C30.9077 9.21702 31.0752 8.9986 31.3049 8.86599L34.7689 6.86599C34.9967 6.73244 35.1625 6.51421 35.23 6.25891C35.2974 6.00361 35.2612 5.73199 35.1292 5.5033C34.9972 5.27461 34.78 5.10743 34.5252 5.03824C34.2703 4.96906 33.9985 5.00347 33.7689 5.13399L30.3049 7.13399C29.6159 7.53183 29.1131 8.18708 28.9072 8.9556C28.7013 9.72411 28.8091 10.543 29.2069 11.232L29.6999 12.086L29.7059 12.096V12.097ZM14.0619 31.992L14.0959 32.025L14.1059 32.035L14.1169 32.045L14.1299 32.055L14.1429 32.067C14.4749 32.346 14.7779 32.295 14.7779 32.295L14.8429 32.256C15.1299 32.081 16.2299 31.332 15.4749 30.578L14.7779 29.881C14.2153 29.3186 13.4524 29.0026 12.6569 29.0026C11.8614 29.0026 11.0985 29.3186 10.5359 29.881L7.70791 32.709C7.53012 32.8983 7.43297 33.1494 7.437 33.4091C7.44103 33.6688 7.54594 33.9167 7.72952 34.1004C7.91311 34.2841 8.16096 34.3892 8.42064 34.3934C8.68033 34.3976 8.93146 34.3006 9.12091 34.123L11.9489 31.294C12.0418 31.201 12.1521 31.1273 12.2735 31.0769C12.3949 31.0266 12.525 31.0007 12.6564 31.0007C12.7878 31.0007 12.918 31.0266 13.0394 31.0769C13.1608 31.1273 13.271 31.201 13.3639 31.294L14.0619 31.992ZM31.7129 15.574L32.2059 16.428C32.6038 17.117 33.259 17.6198 34.0275 17.8257C34.796 18.0316 35.6149 17.9238 36.3039 17.526L39.7679 15.526C39.9957 15.3924 40.1615 15.1742 40.229 14.9189C40.2964 14.6636 40.2602 14.392 40.1282 14.1633C39.9961 13.9346 39.779 13.7674 39.5242 13.6982C39.2693 13.6291 38.9975 13.6635 38.7679 13.794L35.3039 15.794C35.0742 15.9266 34.8013 15.9625 34.5451 15.8939C34.2889 15.8253 34.0705 15.6577 33.9379 15.428L33.4449 14.574C32.8769 13.591 32.5719 16.062 32.5719 16.062C32.0199 14.062 31.5719 14.51 31.5719 15.062C31.5719 15.249 31.6239 15.424 31.7129 15.574ZM16.9099 34.838L17.6069 35.536C17.7001 35.6287 17.7741 35.739 17.8246 35.8604C17.8751 35.9818 17.901 36.112 17.901 36.2435C17.901 36.375 17.8751 36.5052 17.8246 36.6266C17.7741 36.748 17.7001 36.8583 17.6069 36.951L14.7789 39.779C14.5968 39.9676 14.496 40.2202 14.4982 40.4824C14.5005 40.7446 14.6057 40.9954 14.7911 41.1808C14.9765 41.3662 15.2273 41.4714 15.4895 41.4737C15.7517 41.4759 16.0043 41.3752 16.1929 41.193L19.0209 38.364C19.2996 38.0856 19.5207 37.7549 19.6716 37.391C19.8225 37.0271 19.9001 36.637 19.9001 36.243C19.9001 35.849 19.8225 35.4589 19.6716 35.095C19.5207 34.7311 19.2996 34.4004 19.0209 34.122L18.3239 33.424C17.4659 32.567 17.6069 35.122 17.6069 35.122C17.0549 33.122 16.6069 33.57 16.6069 34.122C16.6069 34.403 16.7229 34.657 16.9099 34.838Z" fill="url(#paint2_linear_185_93)"/>
<defs>
<linearGradient id="paint0_linear_185_93" x1="37.846" y1="6.17076" x2="2.75679" y2="46.5805" gradientUnits="userSpaceOnUse">
<stop stop-color="#00B7D5"/>
<stop offset="1" stop-color="#7C1DC9"/>
</linearGradient>
<linearGradient id="paint1_linear_185_93" x1="37.846" y1="6.17076" x2="2.75679" y2="46.5805" gradientUnits="userSpaceOnUse">
<stop stop-color="#00B7D5"/>
<stop offset="1" stop-color="#7C1DC9"/>
</linearGradient>
<linearGradient id="paint2_linear_185_93" x1="37.846" y1="6.17076" x2="2.75679" y2="46.5805" gradientUnits="userSpaceOnUse">
<stop stop-color="#00B7D5"/>
<stop offset="1" stop-color="#7C1DC9"/>
</linearGradient>
</defs>
</svg>
