<svg width="38" height="48" viewBox="0 0 38 48" fill="none" xmlns="http://www.w3.org/2000/svg">
<path d="M19.6577 8.07273C19.5115 7.85455 19.2923 7.70909 19 7.70909C18.7077 7.70909 18.4885 7.85455 18.3423 8.07273C13.0077 18.5455 13.4462 17.7455 13.4462 17.8909V45.4545C13.4462 46.8364 14.6154 48 16.0038 48H21.9962C23.3846 48 24.5538 46.8364 24.5538 45.4545C24.5538 16 24.6269 17.7455 24.4077 17.4545L19.6577 8.07273ZM19 10.0364L20.6077 13.1636C19.5846 13.5273 18.4154 13.5273 17.3923 13.1636L19 10.0364ZM16.7346 14.4727C18.1962 14.9818 19.8038 14.9818 21.2654 14.4727L22.6538 17.1636H15.3462L16.7346 14.4727ZM14.9077 18.6182H18.2692V39.6364H14.9077V18.6182ZM23.0923 45.4545C23.0923 46.0364 22.5808 46.5455 21.9962 46.5455H16.0038C15.4192 46.5455 14.9077 46.0364 14.9077 45.4545V41.0909H23.0923V45.4545ZM23.0923 39.6364H19.7308V18.6182H23.0923V39.6364Z" fill="url(#paint0_linear_191_126)"/>
<path d="M35.0038 5.96364C36.6846 5.96364 38 4.65455 38 2.98182C38 1.30909 36.6846 0 35.0038 0C33.6154 0 32.5192 0.945454 32.1538 2.25455H21.9962V0.727273C21.9962 0.290909 21.7038 0 21.2654 0H16.8077C16.3692 0 16.0769 0.290909 16.0769 0.727273V2.25455H5.84615C5.48077 0.945454 4.38462 0 2.92308 0C1.31538 0 0 1.30909 0 2.98182C0 4.58182 1.31538 5.96364 2.92308 5.96364C4.31154 5.96364 5.48077 5.01818 5.77308 3.70909H12.1308C7.16154 5.89091 3.43462 10.4727 2.41154 16H0.730769C0.292308 16 0 16.2909 0 16.7273V21.1636C0 21.6 0.292308 21.8909 0.730769 21.8909H5.26154C5.7 21.8909 5.99231 21.6 5.99231 21.1636V16.7273C5.99231 16.2909 5.7 16 5.26154 16H4.01923C5.18846 9.96364 10.0115 5.23636 16.0769 4V5.23636C16.0769 5.67273 16.3692 5.96364 16.8077 5.96364H21.2654C21.7038 5.96364 21.9962 5.67273 21.9962 5.23636V4C28.0615 5.16364 32.8115 9.96364 34.0538 16H32.8115C32.3731 16 32.0808 16.2909 32.0808 16.7273V21.1636C32.0808 21.6 32.3731 21.8909 32.8115 21.8909H37.2692C37.7077 21.8909 38 21.6 38 21.1636V16.7273C38 16.2909 37.7077 16 37.2692 16H35.4423C34.4192 10.4727 30.7654 5.96364 25.7231 3.70909H32.1538C32.5192 4.94545 33.6154 5.96364 35.0038 5.96364ZM35.0769 1.45455C35.8808 1.45455 36.5385 2.10909 36.5385 2.98182C36.5385 3.78182 35.8808 4.50909 35.0038 4.50909C34.2 4.50909 33.4692 3.85455 33.4692 2.98182C33.5423 2.10909 34.2 1.45455 35.0769 1.45455ZM2.99615 4.50909C2.11923 4.50909 1.46154 3.85455 1.46154 2.98182C1.46154 2.10909 2.11923 1.45455 2.99615 1.45455C3.8 1.45455 4.53077 2.10909 4.53077 2.98182C4.45769 3.78182 3.8 4.50909 2.99615 4.50909ZM4.45769 17.4545V20.4364H1.46154V17.4545H4.45769ZM20.5346 4.50909H17.5385V1.45455H20.5346V4.50909ZM36.5385 17.4545V20.4364H33.4692V17.4545H36.5385Z" fill="url(#paint1_linear_191_126)"/>
<defs>
<linearGradient id="paint0_linear_191_126" x1="32.1993" y1="4.51277" x2="-6.51683" y2="43.4139" gradientUnits="userSpaceOnUse">
<stop stop-color="#00B7D5"/>
<stop offset="1" stop-color="#7C1DC9"/>
</linearGradient>
<linearGradient id="paint1_linear_191_126" x1="32.1993" y1="4.51277" x2="-6.51683" y2="43.4139" gradientUnits="userSpaceOnUse">
<stop stop-color="#00B7D5"/>
<stop offset="1" stop-color="#7C1DC9"/>
</linearGradient>
</defs>
</svg>
