<svg width="48" height="48" viewBox="0 0 48 48" fill="none" xmlns="http://www.w3.org/2000/svg">
<path d="M14.929 8.4041C15.0712 8.47614 15.2327 8.501 15.39 8.47505C15.5473 8.44911 15.6923 8.37372 15.8038 8.25981C19.2647 4.72599 25.5101 6.28319 28.2167 7.53278L27.4192 8.91419C27.35 9.03425 27.3153 9.17113 27.3192 9.30967C27.323 9.4482 27.3651 9.58297 27.4409 9.69902C27.5166 9.81507 27.6231 9.90787 27.7483 9.96712C27.8736 10.0264 28.0129 10.0498 28.1506 10.0347L35.8904 9.18494C36.0034 9.17253 36.1121 9.13457 36.2083 9.07395C36.3045 9.01332 36.3857 8.93162 36.4457 8.83501C36.5057 8.7384 36.5429 8.62942 36.5545 8.5163C36.5662 8.40319 36.552 8.28891 36.513 8.1821L33.7032 0.492705C33.6542 0.358665 33.568 0.241372 33.4548 0.154598C33.3415 0.0678236 33.2058 0.0151691 33.0636 0.00281588C32.9215 -0.00953729 32.7787 0.0189237 32.6522 0.0848575C32.5256 0.150791 32.4205 0.251461 32.3491 0.375049L31.5698 1.72486C27.6763 -0.284484 23.3005 -0.489047 19.7288 1.20164C16.8709 2.55474 14.9752 4.89156 14.5279 7.61341C14.502 7.77073 14.527 7.93218 14.5991 8.07436C14.6713 8.21653 14.7868 8.33203 14.929 8.4041ZM20.3706 2.55746C23.6999 0.981238 27.8523 1.29005 31.4783 3.38359C31.5636 3.43289 31.6577 3.46489 31.7554 3.47776C31.8531 3.49063 31.9523 3.48411 32.0475 3.45859C32.2395 3.40702 32.4033 3.28132 32.5028 3.10909L32.8454 2.51565L34.7756 7.79828L29.4584 8.38216L29.9097 7.60047C29.9589 7.51517 29.9909 7.42101 30.0037 7.32336C30.0166 7.22571 30.0101 7.12648 29.9846 7.03135C29.9591 6.93621 29.9151 6.84703 29.8551 6.7689C29.7951 6.69077 29.7204 6.62521 29.6351 6.57597C28.3052 5.80834 25.7172 4.83971 22.7998 4.63703C22.4493 4.61241 22.0981 4.6 21.7467 4.59981C19.8662 4.59981 18.1974 4.96975 16.7988 5.69106C17.5595 4.39768 18.7885 3.30643 20.3706 2.55746ZM47.3687 21.7953L44.6853 21.3657C44.5373 20.9013 44.3503 20.4502 44.1261 20.0173L45.7202 17.8157C45.8248 17.6712 45.8745 17.4942 45.8604 17.3164C45.8462 17.1385 45.7692 16.9716 45.643 16.8455L43.5723 14.7747C43.4461 14.6486 43.2792 14.5716 43.1014 14.5575C42.9236 14.5433 42.7466 14.593 42.6021 14.6976L40.4006 16.2916C39.9677 16.0674 39.5165 15.8803 39.052 15.7323L38.6225 13.0491C38.5944 12.873 38.5043 12.7127 38.3686 12.597C38.2329 12.4813 38.0604 12.4177 37.882 12.4177H34.9535C34.7752 12.4177 34.6026 12.4813 34.4669 12.597C34.3312 12.7127 34.2412 12.873 34.213 13.0491L33.7835 15.7323C33.319 15.8803 32.8678 16.0674 32.4349 16.2916L30.2334 14.6976C30.089 14.593 29.9119 14.5432 29.7341 14.5574C29.5563 14.5715 29.3894 14.6486 29.2633 14.7747L27.1925 16.8455C27.0664 16.9716 26.9893 17.1385 26.9752 17.3164C26.961 17.4942 27.0107 17.6712 27.1153 17.8157L28.7094 20.0172C28.4852 20.4501 28.2982 20.9012 28.1503 21.3657L25.4668 21.7953C25.2907 21.8235 25.1304 21.9135 25.0147 22.0492C24.899 22.1849 24.8354 22.3575 24.8354 22.5358V25.4642C24.8354 25.6425 24.899 25.8151 25.0147 25.9508C25.1304 26.0865 25.2907 26.1765 25.4668 26.2047L28.1503 26.6342C28.2982 27.0987 28.4853 27.5498 28.7094 27.9827L27.1153 30.1843C27.0106 30.3288 26.9609 30.5058 26.9751 30.6837C26.9892 30.8615 27.0663 31.0284 27.1924 31.1545L29.2632 33.2253C29.3893 33.3514 29.5562 33.4284 29.734 33.4425C29.9118 33.4567 30.0888 33.407 30.2333 33.3024L32.4349 31.7084C32.8678 31.9326 33.3189 32.1197 33.7834 32.2677L34.2129 34.9508C34.2411 35.1269 34.3311 35.2872 34.4668 35.4029C34.6026 35.5186 34.7751 35.5822 34.9534 35.5822H37.8819C38.0603 35.5822 38.2328 35.5186 38.3685 35.4029C38.5042 35.2872 38.5943 35.1269 38.6224 34.9508L39.052 32.2675C39.5165 32.1195 39.9676 31.9324 40.4004 31.7082L42.602 33.3024C42.7465 33.4069 42.9235 33.4566 43.1013 33.4425C43.2791 33.4284 43.4461 33.3514 43.5723 33.2253L45.643 31.1545C45.7692 31.0284 45.8462 30.8615 45.8604 30.6837C45.8745 30.5058 45.8248 30.3288 45.7202 30.1843L44.1261 27.9827C44.3504 27.5498 44.5374 27.0987 44.6854 26.6342L47.3686 26.2047C47.5447 26.1765 47.705 26.0865 47.8207 25.9508C47.9364 25.8151 48 25.6425 48 25.4642V22.5358C48 22.3575 47.9365 22.185 47.8208 22.0492C47.7051 21.9135 47.5448 21.8235 47.3687 21.7953ZM46.5001 24.8248L43.9778 25.2286C43.8334 25.2517 43.6989 25.3166 43.5909 25.4151C43.4828 25.5137 43.406 25.6417 43.3698 25.7834C43.2016 26.4407 42.9403 27.0705 42.594 27.6539C42.5194 27.7797 42.4832 27.9246 42.4899 28.0707C42.4965 28.2168 42.5458 28.3578 42.6316 28.4763L44.1303 30.5462L42.9639 31.7125L40.8941 30.2139C40.7756 30.1281 40.6347 30.0788 40.4885 30.0721C40.3424 30.0655 40.1975 30.1017 40.0717 30.1763C39.4882 30.5225 38.8583 30.7837 38.201 30.952C38.0594 30.9882 37.9314 31.065 37.8328 31.1731C37.7343 31.2811 37.6694 31.4155 37.6463 31.5599L37.2425 34.0823H35.5931L35.1894 31.5601C35.1663 31.4157 35.1014 31.2812 35.0028 31.1732C34.9043 31.0652 34.7763 30.9883 34.6346 30.952C33.9773 30.7839 33.3474 30.5227 32.764 30.1764C32.6382 30.1017 32.4933 30.0655 32.3472 30.0722C32.2011 30.0789 32.0601 30.1282 31.9416 30.214L29.8717 31.7125L28.7054 30.5462L30.204 28.4763C30.2898 28.3578 30.3391 28.2168 30.3458 28.0707C30.3524 27.9246 30.3162 27.7797 30.2416 27.6539C29.8954 27.0705 29.6342 26.4406 29.4659 25.7833C29.4297 25.6416 29.3528 25.5137 29.2448 25.4151C29.1368 25.3165 29.0023 25.2517 28.8579 25.2286L26.3354 24.8248V23.1754L28.8579 22.7715C29.0023 22.7484 29.1368 22.6836 29.2448 22.585C29.3528 22.4864 29.4297 22.3585 29.4659 22.2168C29.6341 21.5595 29.8953 20.9296 30.2415 20.3462C30.3162 20.2204 30.3523 20.0755 30.3457 19.9294C30.339 19.7833 30.2897 19.6423 30.2039 19.5238L28.7054 17.454L29.8717 16.2877L31.9414 17.7861C32.0599 17.8719 32.2009 17.9211 32.347 17.9278C32.4931 17.9345 32.638 17.8983 32.7638 17.8237C33.3473 17.4775 33.9773 17.2163 34.6346 17.0481C34.7763 17.0119 34.9043 16.935 35.0028 16.827C35.1014 16.719 35.1663 16.5845 35.1894 16.4401L35.5931 13.9178H37.2425L37.6462 16.4401C37.6694 16.5845 37.7342 16.719 37.8328 16.827C37.9314 16.935 38.0594 17.0119 38.201 17.0481C38.8583 17.2163 39.4882 17.4775 40.0716 17.8238C40.1975 17.8984 40.3423 17.9346 40.4884 17.9279C40.6345 17.9212 40.7755 17.872 40.894 17.7862L42.9638 16.2877L44.1302 17.454L42.6315 19.5239C42.5457 19.6424 42.4965 19.7834 42.4898 19.9295C42.4831 20.0756 42.5193 20.2205 42.5939 20.3463C42.9401 20.9297 43.2013 21.5596 43.3696 22.2169C43.4058 22.3585 43.4827 22.4865 43.5907 22.585C43.6987 22.6836 43.8332 22.7484 43.9775 22.7715L46.5001 23.1754V24.8248ZM36.4178 18.9231C33.6184 18.9231 31.3409 21.2007 31.3409 24.0001C31.3409 26.7995 33.6183 29.077 36.4178 29.077C39.2173 29.077 41.4947 26.7995 41.4947 24.0001C41.4947 21.2007 39.2172 18.9231 36.4178 18.9231ZM36.4178 27.5769C34.4455 27.5769 32.8409 25.9724 32.8409 24.0001C32.8409 22.0278 34.4455 20.4232 36.4178 20.4232C38.3901 20.4232 39.9947 22.0278 39.9947 24.0001C39.9947 25.9724 38.3901 27.5769 36.4178 27.5769ZM15.1045 33.7987V33.2401C15.7502 32.9411 16.2002 32.2886 16.2002 31.5315V30.4231C16.3713 27.5602 17.0809 26.3468 17.7673 25.1738C18.4066 24.0812 19.0105 23.0491 19.0105 21.0452C19.0105 16.7854 15.545 13.3198 11.2852 13.3198C7.02551 13.3198 3.55984 16.7855 3.55984 21.0452C3.55984 23.0491 4.16378 24.0812 4.80316 25.1738C5.4896 26.3468 6.1992 27.5602 6.37029 30.4231V31.5315C6.37029 32.3181 6.85535 32.9927 7.5417 33.2742V33.7987C7.5417 34.5819 8.02245 35.2543 8.70411 35.538V36.0657C8.70411 37.1043 9.54908 37.9493 10.5876 37.9493H12.0586C13.0972 37.9493 13.9421 37.1043 13.9421 36.0657V35.5381C14.6238 35.2543 15.1045 34.5818 15.1045 33.7987ZM13.2211 34.182H9.42514C9.2173 34.182 9.04161 34.0064 9.04161 33.7986V33.415H13.6044V33.7986C13.6045 34.0064 13.4289 34.182 13.2211 34.182ZM8.25373 31.915C8.04589 31.915 7.87029 31.7395 7.87029 31.5315V31.1479H14.7002V31.5315C14.7002 31.7395 14.5246 31.915 14.3168 31.915H8.25373ZM9.33064 21.9674H8.4597C7.97951 21.9674 7.58876 21.5767 7.58876 21.0965C7.58876 20.6162 7.97942 20.2255 8.4597 20.2255C8.93998 20.2255 9.33064 20.6162 9.33064 21.0965V21.9674ZM11.7397 29.6479H10.8306V23.4674H11.7397V29.6479ZM5.05985 21.0452C5.05985 17.6125 7.85258 14.8198 11.2852 14.8198C14.7179 14.8198 17.5105 17.6125 17.5105 21.0452C17.5105 22.6425 17.0525 23.4253 16.4726 24.4163C15.8216 25.5289 15.0234 26.8929 14.7561 29.6479H13.2397V23.4674H14.1107C15.418 23.4674 16.4816 22.4038 16.4816 21.0965C16.4816 19.7891 15.418 18.7255 14.1107 18.7255C12.8033 18.7255 11.7397 19.7891 11.7397 21.0965V21.9674H10.8306V21.0965C10.8306 19.7891 9.76705 18.7255 8.4597 18.7255C7.15235 18.7255 6.08876 19.7891 6.08876 21.0965C6.08876 22.4038 7.15235 23.4674 8.4597 23.4674H9.33064V29.6479H7.81423C7.54686 26.8929 6.74876 25.5288 6.09776 24.4163C5.51782 23.4253 5.05985 22.6426 5.05985 21.0452ZM13.2397 21.9674V21.0965C13.2397 20.6162 13.6304 20.2255 14.1107 20.2255C14.591 20.2255 14.9816 20.6162 14.9816 21.0965C14.9816 21.5767 14.591 21.9674 14.1107 21.9674H13.2397ZM12.0586 36.4492H10.5876C10.3797 36.4492 10.2041 36.2736 10.2041 36.0657V35.682H12.4421V36.0657C12.4421 36.2736 12.2664 36.4492 12.0586 36.4492ZM10.5351 11.712V10.069C10.5351 9.87009 10.6142 9.67933 10.7548 9.53867C10.8955 9.39802 11.0862 9.319 11.2851 9.319C11.4841 9.319 11.6748 9.39802 11.8155 9.53867C11.9561 9.67933 12.0351 9.87009 12.0351 10.069V11.712C12.0351 11.9109 11.9561 12.1017 11.8155 12.2423C11.6748 12.383 11.4841 12.462 11.2851 12.462C11.0862 12.462 10.8955 12.383 10.7548 12.2423C10.6142 12.1017 10.5351 11.9109 10.5351 11.712ZM4.55313 12.0737C4.45524 11.9015 4.42943 11.6976 4.48132 11.5065C4.53321 11.3153 4.65859 11.1525 4.83011 11.0535C5.00162 10.9544 5.20535 10.9273 5.39682 10.9779C5.58829 11.0285 5.75197 11.1528 5.85213 11.3237L6.67367 12.7466C6.72291 12.8319 6.75487 12.9261 6.76773 13.0237C6.78058 13.1214 6.77408 13.2206 6.74858 13.3157C6.72309 13.4109 6.67911 13.5001 6.61914 13.5782C6.55918 13.6563 6.48442 13.7219 6.39912 13.7712C6.31382 13.8204 6.21965 13.8524 6.122 13.8652C6.02435 13.8781 5.92512 13.8716 5.82998 13.8461C5.73484 13.8206 5.64566 13.7766 5.56752 13.7166C5.48938 13.6567 5.42381 13.5819 5.37457 13.4966L4.55313 12.0737ZM2.82241 17.348C2.77318 17.4333 2.70762 17.5081 2.62947 17.568C2.55133 17.628 2.46213 17.672 2.36698 17.6975C2.27183 17.723 2.17259 17.7295 2.07493 17.7166C1.97727 17.7037 1.8831 17.6717 1.79781 17.6225L0.374961 16.8008C0.289667 16.7516 0.21491 16.686 0.154956 16.6079C0.0950031 16.5297 0.0510284 16.4405 0.025543 16.3454C5.75978e-05 16.2503 -0.00643938 16.151 0.006423 16.0534C0.0192854 15.9557 0.0512553 15.8616 0.100507 15.7763C0.149759 15.691 0.215329 15.6162 0.293472 15.5563C0.371616 15.4963 0.460803 15.4524 0.555941 15.4269C0.651079 15.4014 0.750305 15.3949 0.847955 15.4077C0.945604 15.4206 1.03976 15.4526 1.12506 15.5018L2.548 16.3235C2.72024 16.4229 2.84591 16.5867 2.89737 16.7789C2.94883 16.971 2.92187 17.1757 2.82241 17.348ZM17.7427 11.0492C17.9149 11.1486 18.0406 11.3124 18.0921 11.5046C18.1436 11.6967 18.1166 11.9014 18.0172 12.0737L17.1956 13.4966C17.1464 13.5819 17.0808 13.6567 17.0027 13.7167C16.9246 13.7767 16.8354 13.8207 16.7402 13.8462C16.6451 13.8716 16.5458 13.8781 16.4482 13.8653C16.3505 13.8524 16.2563 13.8204 16.171 13.7711C15.9988 13.6716 15.8731 13.5078 15.8216 13.3157C15.7701 13.1236 15.7971 12.9189 15.8965 12.7466L16.7181 11.3237C16.7673 11.2384 16.8329 11.1636 16.911 11.1036C16.9892 11.0436 17.0784 10.9996 17.1735 10.9742C17.2686 10.9487 17.3679 10.9422 17.4655 10.955C17.5632 10.9679 17.6574 10.9999 17.7427 11.0492ZM22.4699 15.7764C22.5694 15.9487 22.5963 16.1534 22.5449 16.3455C22.4934 16.5377 22.3677 16.7015 22.1954 16.8009L20.7725 17.6225C20.6872 17.6717 20.593 17.7037 20.4954 17.7166C20.3977 17.7295 20.2985 17.723 20.2033 17.6975C20.1082 17.672 20.019 17.628 19.9408 17.568C19.8627 17.5081 19.7971 17.4333 19.7479 17.348C19.6484 17.1757 19.6215 16.971 19.673 16.7789C19.7244 16.5867 19.8501 16.4229 20.0224 16.3235L21.4453 15.5019C21.8041 15.295 22.2628 15.4177 22.4699 15.7764ZM35.5438 39.9904C35.4015 39.9184 35.2401 39.8936 35.0828 39.9196C34.9255 39.9455 34.7806 40.0209 34.669 40.1347C31.4368 43.435 25.6126 42.0028 23.047 40.8313L23.7763 39.568C23.8456 39.4479 23.8802 39.311 23.8764 39.1725C23.8725 39.034 23.8304 38.8992 23.7547 38.7832C23.6789 38.6671 23.5725 38.5743 23.4473 38.5151C23.322 38.4558 23.1828 38.4324 23.045 38.4475L15.7422 39.2493C15.6292 39.2617 15.5205 39.2997 15.4243 39.3603C15.328 39.4209 15.2469 39.5026 15.1869 39.5992C15.1269 39.6959 15.0897 39.8048 15.0781 39.918C15.0664 40.0311 15.0806 40.1454 15.1196 40.2522L17.7707 47.5076C17.8197 47.6416 17.9059 47.7588 18.0192 47.8455C18.1325 47.9322 18.2681 47.9848 18.4103 47.9972C18.5524 48.0095 18.6951 47.9811 18.8216 47.9152C18.9482 47.8493 19.0533 47.7487 19.1246 47.6251L19.8398 46.3865C23.5162 48.2713 27.643 48.4581 31.014 46.8622C33.7233 45.5795 35.5206 43.3631 35.9449 40.7811C35.9708 40.6238 35.9458 40.4623 35.8737 40.3201C35.8015 40.178 35.686 40.0625 35.5438 39.9904ZM30.3721 45.5065C27.2433 46.9876 23.34 46.6967 19.9309 44.7286C19.8456 44.6794 19.7515 44.6474 19.6538 44.6345C19.5562 44.6216 19.457 44.6281 19.3618 44.6536C19.1697 44.7051 19.0059 44.8309 18.9064 45.0031L18.6285 45.4845L16.8569 40.636L21.7373 40.1001L21.3532 40.7653C21.2537 40.9376 21.2268 41.1423 21.2783 41.3345C21.3298 41.5266 21.4554 41.6904 21.6277 41.7899C22.8864 42.5166 25.3354 43.4331 28.0952 43.6249C30.2255 43.7728 32.1043 43.4533 33.648 42.6925C32.9299 43.8503 31.8053 44.828 30.3721 45.5065Z" fill="url(#paint0_linear_185_119)"/>
<defs>
<linearGradient id="paint0_linear_185_119" x1="40.6729" y1="4.51277" x2="3.03084" y2="52.2878" gradientUnits="userSpaceOnUse">
<stop stop-color="#00B7D5"/>
<stop offset="1" stop-color="#7C1DC9"/>
</linearGradient>
</defs>
</svg>
