<svg width="36" height="36" viewBox="0 0 36 36" fill="none" xmlns="http://www.w3.org/2000/svg">
<path d="M35 36H1C0.734784 36 0.48043 35.8946 0.292893 35.7071C0.105357 35.5196 0 35.2652 0 35V1C0 0.734784 0.105357 0.48043 0.292893 0.292893C0.48043 0.105357 0.734784 0 1 0H35C35.2652 0 35.5196 0.105357 35.7071 0.292893C35.8946 0.48043 36 0.734784 36 1V35C36 35.2652 35.8946 35.5196 35.7071 35.7071C35.5196 35.8946 35.2652 36 35 36ZM2 34H34V2H2V34Z" fill="url(#paint0_linear_185_106)"/>
<path d="M5 6C5.55228 6 6 5.55228 6 5C6 4.44772 5.55228 4 5 4C4.44772 4 4 4.44772 4 5C4 5.55228 4.44772 6 5 6Z" fill="url(#paint1_linear_185_106)"/>
<path d="M9 6C9.55228 6 10 5.55228 10 5C10 4.44772 9.55228 4 9 4C8.44772 4 8 4.44772 8 5C8 5.55228 8.44772 6 9 6Z" fill="url(#paint2_linear_185_106)"/>
<path d="M13 6C13.5523 6 14 5.55228 14 5C14 4.44772 13.5523 4 13 4C12.4477 4 12 4.44772 12 5C12 5.55228 12.4477 6 13 6Z" fill="url(#paint3_linear_185_106)"/>
<path d="M15 10H1C0.734784 10 0.48043 9.89464 0.292893 9.70711C0.105357 9.51957 0 9.26522 0 9C0 8.73478 0.105357 8.48043 0.292893 8.29289C0.48043 8.10536 0.734784 8 1 8H14.59L18.29 4.29C18.3834 4.19732 18.4943 4.12399 18.6161 4.07423C18.7379 4.02446 18.8684 3.99924 19 4H35C35.2652 4 35.5196 4.10536 35.7071 4.29289C35.8946 4.48043 36 4.73478 36 5C36 5.26522 35.8946 5.51957 35.7071 5.70711C35.5196 5.89464 35.2652 6 35 6H19.41L15.71 9.71C15.6166 9.80268 15.5057 9.87601 15.3839 9.92577C15.2621 9.97553 15.1316 10.0008 15 10ZM10.59 26C10.4584 26.0008 10.3279 25.9755 10.2061 25.9258C10.0843 25.876 9.97344 25.8027 9.88 25.71L5.88 21.71C5.78627 21.617 5.71188 21.5064 5.66111 21.3846C5.61034 21.2627 5.5842 21.132 5.5842 21C5.5842 20.868 5.61034 20.7373 5.66111 20.6154C5.71188 20.4936 5.78627 20.383 5.88 20.29L9.88 16.29C10.0674 16.1037 10.3208 15.9992 10.585 15.9992C10.8492 15.9992 11.1026 16.1037 11.29 16.29C11.3837 16.383 11.4581 16.4936 11.5089 16.6154C11.5597 16.7373 11.5858 16.868 11.5858 17C11.5858 17.132 11.5597 17.2627 11.5089 17.3846C11.4581 17.5064 11.3837 17.617 11.29 17.71L8 21L11.29 24.29C11.4304 24.4293 11.5264 24.6071 11.5658 24.8009C11.6052 24.9947 11.5862 25.1958 11.5113 25.3789C11.4363 25.5619 11.3088 25.7186 11.1448 25.8292C10.9809 25.9397 10.7878 25.9992 10.59 26ZM25.59 26C25.3914 26.0012 25.1969 25.9431 25.0314 25.8333C24.8659 25.7235 24.7368 25.5669 24.6606 25.3835C24.5845 25.2 24.5647 24.9981 24.6037 24.8033C24.6428 24.6086 24.739 24.4299 24.88 24.29L28.17 21L24.88 17.71C24.7863 17.617 24.7119 17.5064 24.6611 17.3846C24.6103 17.2627 24.5842 17.132 24.5842 17C24.5842 16.868 24.6103 16.7373 24.6611 16.6154C24.7119 16.4936 24.7863 16.383 24.88 16.29C25.0674 16.1037 25.3208 15.9992 25.585 15.9992C25.8492 15.9992 26.1026 16.1037 26.29 16.29L30.29 20.29C30.3837 20.383 30.4581 20.4936 30.5089 20.6154C30.5597 20.7373 30.5858 20.868 30.5858 21C30.5858 21.132 30.5597 21.2627 30.5089 21.3846C30.4581 21.5064 30.3837 21.617 30.29 21.71L26.29 25.71C26.1037 25.8947 25.8523 25.9989 25.59 26ZM16 26C15.8431 26.0019 15.6883 25.964 15.55 25.89C15.3145 25.7701 15.136 25.5619 15.0535 25.3108C14.9711 25.0597 14.9914 24.7862 15.11 24.55L19.11 16.55C19.1629 16.4231 19.2413 16.3084 19.3405 16.2131C19.4397 16.1179 19.5575 16.0441 19.6865 15.9964C19.8155 15.9488 19.9529 15.9282 20.0902 15.936C20.2275 15.9439 20.3617 15.98 20.4844 16.042C20.6071 16.1041 20.7157 16.1908 20.8034 16.2967C20.8911 16.4026 20.956 16.5255 20.9941 16.6576C21.0321 16.7897 21.0426 16.9283 21.0246 17.0646C21.0067 17.201 20.9609 17.3322 20.89 17.45L16.89 25.45C16.8069 25.6149 16.6798 25.7536 16.5227 25.8507C16.3656 25.9478 16.1847 25.9994 16 26Z" fill="url(#paint4_linear_185_106)"/>
<defs>
<linearGradient id="paint0_linear_185_106" x1="30.5046" y1="3.38458" x2="2.27313" y2="39.2158" gradientUnits="userSpaceOnUse">
<stop stop-color="#00B7D5"/>
<stop offset="1" stop-color="#7C1DC9"/>
</linearGradient>
<linearGradient id="paint1_linear_185_106" x1="30.5046" y1="3.38458" x2="2.27313" y2="39.2158" gradientUnits="userSpaceOnUse">
<stop stop-color="#00B7D5"/>
<stop offset="1" stop-color="#7C1DC9"/>
</linearGradient>
<linearGradient id="paint2_linear_185_106" x1="30.5046" y1="3.38458" x2="2.27313" y2="39.2158" gradientUnits="userSpaceOnUse">
<stop stop-color="#00B7D5"/>
<stop offset="1" stop-color="#7C1DC9"/>
</linearGradient>
<linearGradient id="paint3_linear_185_106" x1="30.5046" y1="3.38458" x2="2.27313" y2="39.2158" gradientUnits="userSpaceOnUse">
<stop stop-color="#00B7D5"/>
<stop offset="1" stop-color="#7C1DC9"/>
</linearGradient>
<linearGradient id="paint4_linear_185_106" x1="30.5046" y1="3.38458" x2="2.27313" y2="39.2158" gradientUnits="userSpaceOnUse">
<stop stop-color="#00B7D5"/>
<stop offset="1" stop-color="#7C1DC9"/>
</linearGradient>
</defs>
</svg>
